<?xml version="1.0" standalone="no"?>
<!DOCTYPE svg PUBLIC "-//W3C//DTD SVG 20010904//EN"
 "http://www.w3.org/TR/2001/REC-SVG-20010904/DTD/svg10.dtd">
<svg version="1.0" xmlns="http://www.w3.org/2000/svg"
 width="1024.000000pt" height="1024.000000pt" viewBox="0 0 1024.000000 1024.000000"
 preserveAspectRatio="xMidYMid meet">

<g transform="translate(0.000000,1024.000000) scale(0.100000,-0.100000)"
fill="#000000" stroke="none">
<path d="M0 5120 l0 -5120 5120 0 5120 0 0 5120 0 5120 -5120 0 -5120 0 0
-5120z m5096 3019 c107 -15 223 -52 321 -104 245 -129 388 -316 465 -606 22
-84 22 -85 25 -1131 l4 -1048 183 0 c219 0 261 9 334 75 76 68 95 122 100 277
l4 127 -59 29 c-69 35 -136 104 -166 170 -32 73 -35 200 -6 277 31 82 122 175
198 200 80 26 208 18 279 -19 253 -129 249 -503 -5 -630 l-53 -26 0 -128 c0
-78 -6 -148 -15 -181 -47 -178 -178 -311 -350 -356 -43 -11 -111 -15 -250 -15
l-190 0 -1 -193 c-1 -229 -19 -322 -89 -463 l-44 -89 127 -130 c70 -71 165
-169 210 -216 l82 -87 0 -346 0 -346 44 -21 c71 -33 122 -84 158 -157 31 -62
33 -74 33 -167 0 -89 -3 -106 -28 -157 -35 -72 -110 -140 -185 -168 -80 -31
-205 -25 -277 12 -58 30 -123 96 -157 160 -20 37 -23 57 -23 153 0 100 3 115
28 166 32 66 100 132 163 160 l44 20 0 300 0 300 -177 184 c-97 102 -178 185
-181 185 -3 0 -20 -11 -37 -24 -78 -60 -211 -113 -306 -123 -33 -3 -62 -9 -64
-13 -3 -4 -5 -230 -5 -501 l-1 -494 48 -28 c71 -42 121 -95 153 -162 91 -189
8 -415 -179 -486 -76 -29 -214 -24 -279 10 -66 34 -125 94 -157 158 -40 81
-47 202 -15 285 26 71 96 150 167 190 l53 30 0 499 0 499 -380 0 -380 0 0
-405 0 -404 44 -20 c231 -102 274 -444 76 -600 -71 -56 -134 -74 -234 -69
-137 8 -238 76 -294 196 -22 48 -26 71 -26 152 -1 82 3 103 26 152 32 69 97
136 161 166 l47 22 0 404 0 405 -377 3 -378 3 -71 26 c-139 51 -287 175 -337
282 -32 67 -57 180 -57 254 0 55 -2 59 -36 82 -61 42 -187 185 -233 265 -94
165 -122 264 -128 458 -6 169 8 258 61 400 51 135 118 239 226 347 l94 96 2
155 c1 123 5 171 22 232 98 361 405 640 773 701 l72 12 42 101 c70 171 144
282 267 400 160 154 295 229 522 289 188 51 407 67 572 44z"/>
<path d="M4803 7929 c-171 -16 -313 -54 -450 -120 -63 -30 -103 -59 -173 -125
-192 -183 -290 -368 -290 -548 l0 -66 -42 7 c-85 15 -219 8 -293 -15 -197 -62
-356 -196 -446 -377 -76 -154 -95 -296 -60 -455 12 -52 21 -101 21 -110 0 -8
-30 -33 -66 -55 -79 -48 -195 -167 -247 -251 -103 -170 -140 -382 -101 -571
41 -199 128 -329 321 -476 34 -26 65 -57 69 -70 4 -12 8 -74 8 -137 1 -104 4
-120 28 -165 33 -64 104 -129 176 -163 l57 -27 955 -3 c682 -2 972 0 1015 8
179 34 321 166 388 360 l22 65 3 1295 c2 838 -1 1322 -7 1372 -47 350 -296
590 -655 628 -101 11 -116 11 -233 -1z m62 -621 c51 -23 55 -45 55 -320 0
-275 -6 -323 -57 -427 -14 -29 -51 -81 -83 -114 l-58 -62 87 -91 c139 -146
203 -291 217 -498 l7 -93 -30 -33 c-39 -44 -91 -47 -129 -8 -23 22 -28 39 -36
119 -10 101 -36 190 -75 257 -54 94 -223 252 -514 480 -161 126 -186 155 -173
206 16 66 101 86 170 40 55 -37 255 -198 278 -223 11 -12 28 -21 38 -21 28 0
101 79 134 146 l29 59 5 271 c5 287 7 295 55 314 29 12 50 12 80 -2z m-1288
-1569 c133 -106 227 -135 481 -149 291 -16 366 -57 551 -304 152 -203 205
-242 355 -255 44 -4 91 -14 103 -21 64 -41 53 -151 -18 -181 -28 -11 -47 -10
-133 4 -182 31 -273 93 -419 286 -102 135 -168 203 -229 236 -47 27 -63 30
-138 30 -122 0 -157 -19 -305 -171 -140 -143 -182 -174 -237 -174 -55 0 -98
43 -98 97 0 43 16 62 82 102 35 21 178 168 178 183 0 3 -24 14 -52 23 -107 35
-294 159 -323 216 -27 51 -12 108 36 136 41 23 82 9 166 -58z"/>
<path d="M6540 6198 c-153 -103 -15 -344 149 -260 48 24 73 62 79 120 5 54
-10 92 -52 131 -39 37 -128 41 -176 9z"/>
<path d="M4125 2983 c-63 -16 -105 -76 -105 -150 0 -86 58 -143 145 -143 67 0
111 27 136 86 53 118 -50 238 -176 207z"/>
<path d="M6033 2971 c-143 -67 -91 -281 68 -281 88 0 154 72 146 159 -11 106
-118 167 -214 122z"/>
<path d="M5042 2770 c-34 -21 -72 -87 -72 -125 0 -38 38 -104 72 -125 40 -24
116 -27 159 -5 92 48 94 196 3 256 -40 26 -119 25 -162 -1z"/>
</g>
</svg>
