<?xml version="1.0" standalone="no"?>
<!DOCTYPE svg PUBLIC "-//W3C//DTD SVG 20010904//EN"
 "http://www.w3.org/TR/2001/REC-SVG-20010904/DTD/svg10.dtd">
<svg version="1.0" xmlns="http://www.w3.org/2000/svg"
 width="1024.000000pt" height="1024.000000pt" viewBox="0 0 1024.000000 1024.000000"
 preserveAspectRatio="xMidYMid meet">

<g transform="translate(0.000000,1024.000000) scale(0.100000,-0.100000)"
fill="#000000" stroke="none">
<path d="M0 5120 l0 -5120 5120 0 5120 0 0 5120 0 5120 -5120 0 -5120 0 0
-5120z m4991 2895 c158 -33 295 -103 405 -208 126 -119 190 -246 214 -420 6
-51 10 -510 10 -1303 l0 -1224 197 0 197 0 76 78 c41 42 114 120 161 172 l86
94 191 2 c104 1 194 4 199 7 5 3 15 24 23 46 18 56 78 131 134 169 142 95 326
78 449 -43 185 -183 128 -491 -111 -603 -48 -23 -71 -27 -142 -27 -72 0 -94 5
-147 29 -72 33 -144 104 -174 171 l-20 45 -162 0 -162 -1 -59 -67 c-33 -37
-101 -111 -151 -164 l-93 -98 -246 0 -246 0 0 -275 0 -275 805 0 805 0 24 53
c35 77 96 141 174 179 61 30 75 33 157 33 75 0 99 -5 145 -26 287 -133 288
-530 2 -671 -59 -29 -76 -33 -147 -32 -98 1 -170 26 -238 85 -49 42 -107 130
-107 162 0 16 -45 17 -810 17 l-810 0 0 -275 0 -275 240 0 c184 0 248 -3 273
-14 18 -8 102 -84 187 -170 l155 -156 131 0 131 0 18 47 c22 58 102 140 166
171 139 67 317 36 417 -72 105 -114 133 -275 72 -413 -27 -61 -113 -148 -179
-180 -49 -25 -68 -28 -151 -28 -85 0 -101 3 -152 29 -72 37 -131 97 -172 177
l-33 64 -166 5 -167 5 -168 168 -167 167 -216 0 -216 0 -6 -75 c-27 -312 -276
-583 -616 -672 -70 -18 -133 -26 -231 -30 -119 -4 -150 -2 -264 21 -426 88
-719 332 -862 721 l-22 60 -50 6 c-118 15 -287 85 -417 172 -180 121 -330 342
-392 573 -22 85 -26 123 -28 262 l-2 162 -50 53 c-216 229 -322 593 -268 922
40 248 151 455 342 635 l87 83 2 151 c1 203 34 325 131 494 122 210 328 383
543 456 47 16 90 34 96 40 6 6 17 34 23 61 16 63 79 198 122 262 53 76 184
207 262 261 179 124 422 214 653 242 83 10 225 3 315 -15z"/>
<path d="M4695 7824 c-462 -49 -816 -336 -886 -718 -15 -78 -11 -75 -137 -106
-145 -36 -251 -94 -365 -199 -177 -164 -278 -397 -264 -610 3 -47 12 -106 22
-131 9 -25 13 -55 10 -67 -3 -13 -32 -40 -64 -63 -186 -126 -322 -311 -381
-520 -27 -94 -37 -276 -21 -380 31 -197 115 -363 254 -504 82 -82 88 -91 83
-120 -3 -17 -9 -83 -12 -146 -14 -265 57 -453 240 -635 142 -140 289 -212 486
-236 52 -6 101 -16 108 -21 7 -6 19 -36 28 -67 93 -339 331 -579 669 -677 118
-34 323 -44 432 -21 255 55 445 214 507 426 14 49 16 263 16 2177 0 1511 -3
2138 -11 2176 -39 186 -197 345 -413 414 -72 23 -219 36 -301 28z m-57 -565
c36 -12 150 -147 188 -221 36 -72 54 -153 54 -248 0 -169 -57 -312 -172 -435
-37 -40 -68 -76 -68 -80 0 -4 78 -87 173 -184 187 -190 227 -249 262 -386 19
-76 19 -241 0 -322 -54 -228 -232 -433 -455 -521 -120 -47 -298 -66 -415 -43
-56 10 -91 -2 -158 -54 -116 -92 -186 -219 -194 -355 -4 -63 -1 -88 21 -153
33 -99 33 -122 -3 -158 -34 -33 -78 -38 -116 -13 -43 28 -105 216 -105 320 0
67 32 188 69 264 37 75 107 166 163 215 41 34 42 37 23 48 -11 7 -106 96 -211
200 -105 103 -197 187 -205 188 -8 0 -62 0 -122 -1 -107 -1 -108 -1 -137 29
-41 41 -41 91 -1 132 25 25 37 29 83 29 198 0 359 99 441 272 41 85 56 98 117
98 33 0 48 -6 71 -29 16 -16 29 -40 29 -52 0 -35 -74 -177 -125 -242 -25 -32
-70 -77 -100 -100 -32 -25 -51 -46 -47 -53 20 -34 325 -313 368 -336 72 -39
155 -58 254 -58 165 0 302 53 406 155 135 133 199 323 160 475 -29 113 -51
145 -240 342 l-181 190 -50 -9 c-27 -4 -104 -7 -170 -7 -100 0 -130 4 -178 23
-68 27 -318 190 -341 223 -27 38 -21 95 13 129 50 50 79 42 232 -60 169 -112
203 -125 312 -119 192 10 338 140 392 348 21 80 16 170 -14 227 -11 23 -50 77
-86 120 -56 67 -65 83 -65 118 0 45 21 82 54 95 29 12 38 12 74 -1z m-84
-2999 c158 -106 236 -248 236 -430 0 -151 -55 -275 -172 -385 -119 -113 -251
-156 -314 -102 -21 18 -27 32 -27 65 0 54 19 74 102 114 135 64 213 172 214
293 1 121 -54 214 -174 296 -32 22 -63 48 -69 59 -18 33 -11 77 16 109 21 26
33 31 69 31 35 0 57 -9 119 -50z"/>
<path d="M7012 5273 c-72 -35 -114 -122 -94 -192 16 -51 46 -87 93 -111 70
-36 140 -20 196 43 56 64 56 144 1 211 -52 64 -128 83 -196 49z"/>
<path d="M7515 4176 c-41 -18 -82 -67 -96 -116 -34 -114 88 -235 201 -201 86
26 137 100 127 187 -12 108 -131 174 -232 130z"/>
<path d="M7025 3075 c-74 -26 -125 -112 -111 -187 8 -43 60 -107 102 -124 98
-41 214 24 231 130 12 77 -46 164 -125 186 -46 12 -48 12 -97 -5z"/>
</g>
</svg>
